<svg height="496pt" viewBox="0 0 496 496" width="496pt" xmlns="http://www.w3.org/2000/svg"><path d="m184 384 16 72h-64l16-72zm0 0" fill="#ff826e"/><path d="m194 357.601562-2 2.398438-8 24h-32l-8-24-2-2.398438 26-21.601562zm0 0" fill="#ff826e"/><path d="m264 456h-64l-16-72 8-24 2-2.398438 22 18.398438 23.199219-69.601562 56 18.640624c6.320312 2.160157 12 5.519532 16.800781 9.761719v121.199219zm0 0" fill="#e6e9ed"/><path d="m72 456h-64v-85.441406c0-20.636719 13.199219-38.957032 32.800781-45.519532l56-18.640624 23.199219 69.601562 22-18.398438 2 2.398438 8 24-16 72zm0 0" fill="#e6e9ed"/><path d="m239.199219 306.398438-23.199219 69.601562-22-18.398438-26-21.601562 40-40zm0 0" fill="#ccd1d9"/><path d="m168 336-26 21.601562-22 18.398438-23.199219-69.601562 31.199219-10.398438zm0 0" fill="#ccd1d9"/><path d="m208 269.28125v26.71875l-40 40-40-40v-26.71875c11.761719 6.796875 25.441406 10.71875 40 10.71875s28.238281-3.921875 40-10.71875zm0 0" fill="#f0d0b4"/><path d="m280 112.398438v71.601562c0-17.679688-14.320312-32-32-32v-16h-2.71875c-14.5625 0-28.722656-2.878906-41.839844-8.320312-13.121094-5.441407-25.203125-13.441407-35.441406-23.679688-20.480469 20.480469-48.238281 32-77.28125 32h-2.71875v16c-17.679688 0-32 14.320312-32 32v-95.199219c0-23.761719 16.71875-44.160156 40-48.800781l21.679688-14.480469c17.199218-11.441406 37.28125-17.519531 57.921874-17.519531 28.878907 0 54.957032 11.679688 73.839844 30.558594 18.878906 18.882812 30.558594 44.960937 30.558594 73.839844zm0 0" fill="#fcd770"/><g fill="#f0d0b4"><path d="m280 184c0 17.679688-14.320312 32-32 32l-1.519531-.238281c.960937-5.042969 1.519531-10.320313 1.519531-15.761719v-48c17.679688 0 32 14.320312 32 32zm0 0"/><path d="m88 200c0 5.441406.558594 10.71875 1.519531 15.761719l-1.519531.238281c-17.679688 0-32-14.320312-32-32s14.320312-32 32-32zm0 0"/><path d="m90.71875 136c29.042969 0 56.800781-11.519531 77.28125-32 10.238281 10.238281 22.320312 18.238281 35.441406 23.679688 13.117188 5.441406 27.277344 8.320312 41.839844 8.320312h2.71875v64c0 5.441406-.558594 10.71875-1.519531 15.761719-4.640625 22.878906-18.960938 42.238281-38.480469 53.519531-11.761719 6.796875-25.441406 10.71875-40 10.71875s-28.238281-3.921875-40-10.71875c-6.078125-3.519531-11.601562-7.761719-16.558594-12.722656-10.960937-10.957032-18.722656-25.039063-21.921875-40.796875-.960937-5.042969-1.519531-10.320313-1.519531-15.761719v-64zm0 0"/></g><path d="m312 264v224h176v-224zm0 0" fill="#48cfad"/><path d="m344 424h32v32h-32zm0 0" fill="#fcd770"/><path d="m344 360h32v32h-32zm0 0" fill="#fcd770"/><path d="m216 168c0 4.417969-3.582031 8-8 8s-8-3.582031-8-8 3.582031-8 8-8 8 3.582031 8 8zm0 0"/><path d="m136 168c0 4.417969-3.582031 8-8 8s-8-3.582031-8-8 3.582031-8 8-8 8 3.582031 8 8zm0 0"/><path d="m200 216h-16c0 8.824219-7.175781 16-16 16s-16-7.175781-16-16h-16c0 17.648438 14.351562 32 32 32s32-14.351562 32-32zm0 0"/><path d="m304 256v64.046875c-2.039062-.96875-4.121094-1.847656-6.289062-2.566406l-81.710938-27.25v-16.574219c17.679688-11.558594 30.910156-29.304688 36.710938-50.136719 19.816406-2.359375 35.289062-19.078125 35.289062-39.519531v-71.609375c0-61.964844-50.425781-112.390625-112.390625-112.390625-22.257813 0-43.824219 6.519531-62.34375 18.871094l-20.441406 13.625c-26.0625 5.992187-44.824219 29.398437-44.824219 56.296875v95.207031c0 20.441406 15.472656 37.160156 35.289062 39.519531 5.789063 20.839844 19.03125 38.578125 36.710938 50.136719v16.574219l-81.710938 27.25c-22.898437 7.625-38.289062 28.976562-38.289062 53.113281v93.40625h304v32h192v-240zm-74.921875 55.464844-16.964844 50.886718-32.265625-26.886718 30.3125-30.3125zm-70.664063 80.535156h19.160157l12.449219 56h-44.046876zm19.816407-16h-20.46875l-5.496094-16.480469 15.734375-13.105469 15.726562 13.105469zm77.433593-169.367188c.167969-2.199218.335938-4.394531.335938-6.632812v-38.527344c9.289062 3.3125 16 12.113282 16 22.527344 0 10.535156-6.871094 19.414062-16.335938 22.632812zm-191.664062-22.632812c0-10.414062 6.710938-19.214844 16-22.527344v38.527344c0 2.238281.167969 4.433594.335938 6.632812-9.464844-3.21875-16.335938-12.097656-16.335938-22.632812zm16-56v16.808594c-5.945312 1.214844-11.328125 3.855468-16 7.390625v-63.414063c0-19.832031 14.121094-37.058594 33.566406-40.945312l1.546875-.3125 23.023438-15.34375c15.894531-10.582032 34.375-16.183594 53.472656-16.183594 53.152344 0 96.390625 43.238281 96.390625 96.390625v39.816406c-4.671875-3.535156-10.054688-6.183593-16-7.390625v-16.816406h-10.742188c-27.050781 0-52.480468-10.527344-71.601562-29.65625l-5.65625-5.65625-5.65625 5.65625c-19.128906 19.128906-44.550781 29.65625-71.601562 29.65625zm16 72v-56.121094c26.769531-1.167968 51.921875-11.285156 72-28.917968 20.078125 17.632812 45.230469 27.75 72 28.917968v56.121094c0 39.703125-32.296875 72-72 72s-72-32.296875-72-72zm72 88c11.296875 0 22.0625-2.214844 32-6.113281v10.800781l-32 32-32-32v-10.800781c9.9375 3.898437 20.703125 6.113281 32 6.113281zm-42.160156 17.152344 30.3125 30.3125-32.265625 26.886718-16.964844-50.886718zm-109.839844 65.441406c0-17.242188 10.992188-32.496094 27.351562-37.945312l48.390626-16.128907 24.378906 73.128907 22.957031-19.128907 4.632813 13.90625-14.125 63.574219h-49.585938v-56h-16v56h-48zm256 77.40625v-56h-16v56h-49.585938l-14.125-63.574219 4.632813-13.90625 22.957031 19.128907 24.378906-73.128907 48.398438 16.136719c4.160156 1.382812 7.886719 3.574219 11.34375 6.191406v109.152344zm208 32h-160v-208h160zm0 0"/><path d="m336 288h128v16h-128zm0 0"/><path d="m336 320h128v16h-128zm0 0"/><path d="m384 352h-48v48h48zm-16 32h-16v-16h16zm0 0"/><path d="m400 352h64v16h-64zm0 0"/><path d="m400 384h64v16h-64zm0 0"/><path d="m384 416h-48v48h48zm-16 32h-16v-16h16zm0 0"/><path d="m400 416h64v16h-64zm0 0"/><path d="m400 448h64v16h-64zm0 0"/></svg>